%TF.GenerationSoftware,KiCad,Pcbnew,8.0.6*%
%TF.CreationDate,2024-10-18T13:40:27-03:00*%
%TF.ProjectId,FritzenLab-egg-timer,46726974-7a65-46e4-9c61-622d6567672d,rev?*%
%TF.SameCoordinates,Original*%
%TF.FileFunction,Copper,L1,Top*%
%TF.FilePolarity,Positive*%
%FSLAX46Y46*%
G04 Gerber Fmt 4.6, Leading zero omitted, Abs format (unit mm)*
G04 Created by KiCad (PCBNEW 8.0.6) date 2024-10-18 13:40:27*
%MOMM*%
%LPD*%
G01*
G04 APERTURE LIST*
G04 Aperture macros list*
%AMRoundRect*
0 Rectangle with rounded corners*
0 $1 Rounding radius*
0 $2 $3 $4 $5 $6 $7 $8 $9 X,Y pos of 4 corners*
0 Add a 4 corners polygon primitive as box body*
4,1,4,$2,$3,$4,$5,$6,$7,$8,$9,$2,$3,0*
0 Add four circle primitives for the rounded corners*
1,1,$1+$1,$2,$3*
1,1,$1+$1,$4,$5*
1,1,$1+$1,$6,$7*
1,1,$1+$1,$8,$9*
0 Add four rect primitives between the rounded corners*
20,1,$1+$1,$2,$3,$4,$5,0*
20,1,$1+$1,$4,$5,$6,$7,0*
20,1,$1+$1,$6,$7,$8,$9,0*
20,1,$1+$1,$8,$9,$2,$3,0*%
G04 Aperture macros list end*
%TA.AperFunction,SMDPad,CuDef*%
%ADD10RoundRect,0.250000X0.450000X-0.262500X0.450000X0.262500X-0.450000X0.262500X-0.450000X-0.262500X0*%
%TD*%
%TA.AperFunction,SMDPad,CuDef*%
%ADD11RoundRect,0.250000X-0.250000X-0.475000X0.250000X-0.475000X0.250000X0.475000X-0.250000X0.475000X0*%
%TD*%
%TA.AperFunction,SMDPad,CuDef*%
%ADD12RoundRect,0.250000X-0.450000X0.262500X-0.450000X-0.262500X0.450000X-0.262500X0.450000X0.262500X0*%
%TD*%
%TA.AperFunction,ComponentPad*%
%ADD13R,1.700000X1.700000*%
%TD*%
%TA.AperFunction,ComponentPad*%
%ADD14O,1.700000X1.700000*%
%TD*%
%TA.AperFunction,SMDPad,CuDef*%
%ADD15RoundRect,0.150000X0.587500X0.150000X-0.587500X0.150000X-0.587500X-0.150000X0.587500X-0.150000X0*%
%TD*%
%TA.AperFunction,SMDPad,CuDef*%
%ADD16R,1.050000X0.650000*%
%TD*%
%TA.AperFunction,SMDPad,CuDef*%
%ADD17RoundRect,0.150000X-0.825000X-0.150000X0.825000X-0.150000X0.825000X0.150000X-0.825000X0.150000X0*%
%TD*%
%TA.AperFunction,ComponentPad*%
%ADD18R,1.800000X1.800000*%
%TD*%
%TA.AperFunction,ComponentPad*%
%ADD19C,1.800000*%
%TD*%
%TA.AperFunction,ComponentPad*%
%ADD20R,2.000000X2.000000*%
%TD*%
%TA.AperFunction,ComponentPad*%
%ADD21C,2.000000*%
%TD*%
%TA.AperFunction,SMDPad,CuDef*%
%ADD22RoundRect,0.250000X-0.262500X-0.450000X0.262500X-0.450000X0.262500X0.450000X-0.262500X0.450000X0*%
%TD*%
%TA.AperFunction,SMDPad,CuDef*%
%ADD23RoundRect,0.250000X0.262500X0.450000X-0.262500X0.450000X-0.262500X-0.450000X0.262500X-0.450000X0*%
%TD*%
%TA.AperFunction,ViaPad*%
%ADD24C,0.600000*%
%TD*%
%TA.AperFunction,Conductor*%
%ADD25C,0.500000*%
%TD*%
%TA.AperFunction,Conductor*%
%ADD26C,0.250000*%
%TD*%
G04 APERTURE END LIST*
D10*
%TO.P,R2,1*%
%TO.N,Analog*%
X94325000Y-45007500D03*
%TO.P,R2,2*%
%TO.N,GND*%
X94325000Y-43182500D03*
%TD*%
D11*
%TO.P,C1,1*%
%TO.N,VCC*%
X88475000Y-42245000D03*
%TO.P,C1,2*%
%TO.N,GND*%
X90375000Y-42245000D03*
%TD*%
D12*
%TO.P,R3,1*%
%TO.N,VCC*%
X79625000Y-65062500D03*
%TO.P,R3,2*%
%TO.N,Net-(R3-Pad2)*%
X79625000Y-66887500D03*
%TD*%
D13*
%TO.P,J1,1,Pin_1*%
%TO.N,VCC*%
X89720000Y-37800000D03*
D14*
%TO.P,J1,2,Pin_2*%
%TO.N,unconnected-(J1-Pin_2-Pad2)*%
X87180000Y-37800000D03*
%TO.P,J1,3,Pin_3*%
%TO.N,unconnected-(J1-Pin_3-Pad3)*%
X84640000Y-37800000D03*
%TO.P,J1,4,Pin_4*%
%TO.N,unconnected-(J1-Pin_4-Pad4)*%
X82100000Y-37800000D03*
%TO.P,J1,5,Pin_5*%
%TO.N,GND*%
X79560000Y-37800000D03*
%TD*%
D15*
%TO.P,Q1,1,B*%
%TO.N,Net-(Q1-B)*%
X83525000Y-45200000D03*
%TO.P,Q1,2,E*%
%TO.N,GND*%
X83525000Y-43300000D03*
%TO.P,Q1,3,C*%
%TO.N,Net-(BZ1--)*%
X81650000Y-44250000D03*
%TD*%
D16*
%TO.P,SW2,1,1*%
%TO.N,Net-(R3-Pad2)*%
X85900000Y-66850000D03*
X81750000Y-66850000D03*
%TO.P,SW2,2,2*%
%TO.N,Analog*%
X85900000Y-64700000D03*
X81750000Y-64700000D03*
%TD*%
D17*
%TO.P,U1,1,VDD*%
%TO.N,VCC*%
X86725000Y-44295000D03*
%TO.P,U1,2,GP5*%
%TO.N,LED*%
X86725000Y-45565000D03*
%TO.P,U1,3,GP4*%
%TO.N,unconnected-(U1-GP4-Pad3)*%
X86725000Y-46835000D03*
%TO.P,U1,4,GP3*%
%TO.N,MCLR*%
X86725000Y-48105000D03*
%TO.P,U1,5,GP2*%
%TO.N,Buzzer*%
X91675000Y-48105000D03*
%TO.P,U1,6,GP1*%
%TO.N,PGC*%
X91675000Y-46835000D03*
%TO.P,U1,7,GP0*%
%TO.N,Analog*%
X91675000Y-45565000D03*
%TO.P,U1,8,VSS*%
%TO.N,GND*%
X91675000Y-44295000D03*
%TD*%
D18*
%TO.P,D1,1,K*%
%TO.N,GND*%
X75340000Y-61000000D03*
D19*
%TO.P,D1,2,A*%
%TO.N,Net-(D1-A)*%
X72800000Y-61000000D03*
%TD*%
D12*
%TO.P,R4,1*%
%TO.N,VCC*%
X93125000Y-65012500D03*
%TO.P,R4,2*%
%TO.N,Net-(R4-Pad2)*%
X93125000Y-66837500D03*
%TD*%
D20*
%TO.P,BZ1,1,+*%
%TO.N,VCC*%
X70500000Y-47900000D03*
D21*
%TO.P,BZ1,2,-*%
%TO.N,Net-(BZ1--)*%
X78100000Y-47900000D03*
%TD*%
D22*
%TO.P,R5,1*%
%TO.N,Buzzer*%
X81687500Y-41300000D03*
%TO.P,R5,2*%
%TO.N,Net-(Q1-B)*%
X83512500Y-41300000D03*
%TD*%
D23*
%TO.P,R1,1*%
%TO.N,LED*%
X74677500Y-56200000D03*
%TO.P,R1,2*%
%TO.N,Net-(D1-A)*%
X72852500Y-56200000D03*
%TD*%
D13*
%TO.P,J2,1,Pin_1*%
%TO.N,MCLR*%
X98125000Y-41720000D03*
D14*
%TO.P,J2,2,Pin_2*%
%TO.N,VCC*%
X98125000Y-44260000D03*
%TO.P,J2,3,Pin_3*%
%TO.N,GND*%
X98125000Y-46800000D03*
%TO.P,J2,4,Pin_4*%
%TO.N,Analog*%
X98125000Y-49340000D03*
%TO.P,J2,5,Pin_5*%
%TO.N,PGC*%
X98125000Y-51880000D03*
%TD*%
D16*
%TO.P,SW1,1,1*%
%TO.N,Net-(R4-Pad2)*%
X99400000Y-66800000D03*
X95250000Y-66800000D03*
%TO.P,SW1,2,2*%
%TO.N,Analog*%
X99400000Y-64650000D03*
X95250000Y-64650000D03*
%TD*%
D24*
%TO.N,Net-(BZ1--)*%
X78100000Y-44300000D03*
%TO.N,GND*%
X95700000Y-43200000D03*
X83500000Y-42500000D03*
X91400000Y-42200000D03*
%TO.N,Analog*%
X97300000Y-64600000D03*
X87000000Y-64700000D03*
%TO.N,MCLR*%
X93400000Y-41700000D03*
%TO.N,LED*%
X82700000Y-49000000D03*
X75800000Y-56200000D03*
%TO.N,Buzzer*%
X81700000Y-43100000D03*
X89900000Y-48100000D03*
%TD*%
D25*
%TO.N,Net-(BZ1--)*%
X78150000Y-44250000D02*
X78100000Y-44300000D01*
X81650000Y-44250000D02*
X78150000Y-44250000D01*
%TO.N,VCC*%
X81500000Y-63600000D02*
X91000000Y-63600000D01*
X81500000Y-63600000D02*
X81500000Y-46650000D01*
X89720000Y-37800000D02*
X91665000Y-37800000D01*
X89720000Y-37800000D02*
X89720000Y-41000000D01*
X91000000Y-63600000D02*
X92412500Y-65012500D01*
X86725000Y-43995000D02*
X88475000Y-42245000D01*
X81300000Y-46450000D02*
X83980000Y-46450000D01*
X81087500Y-63600000D02*
X81500000Y-63600000D01*
X92412500Y-65012500D02*
X93125000Y-65012500D01*
X70500000Y-47900000D02*
X71950000Y-46450000D01*
X83980000Y-46450000D02*
X86135000Y-44295000D01*
X81500000Y-46650000D02*
X81300000Y-46450000D01*
X91665000Y-37800000D02*
X98125000Y-44260000D01*
X71950000Y-46450000D02*
X81300000Y-46450000D01*
X79625000Y-65062500D02*
X81087500Y-63600000D01*
X89720000Y-41000000D02*
X88475000Y-42245000D01*
X86135000Y-44295000D02*
X86725000Y-44295000D01*
X86725000Y-44295000D02*
X86725000Y-43995000D01*
D26*
%TO.N,GND*%
X95700000Y-43100000D02*
X95700000Y-43100000D01*
X83500000Y-42500000D02*
X83400000Y-42500000D01*
X90375000Y-42245000D02*
X91355000Y-42245000D01*
X91675000Y-44295000D02*
X93212500Y-44295000D01*
X83525000Y-43300000D02*
X83525000Y-42625000D01*
X95600000Y-43200000D02*
X95700000Y-43200000D01*
X93212500Y-44295000D02*
X94325000Y-43182500D01*
X83525000Y-42625000D02*
X83500000Y-42600000D01*
X95617500Y-43182500D02*
X95600000Y-43200000D01*
X83400000Y-42500000D02*
X83500000Y-42600000D01*
X95700000Y-43200000D02*
X95700000Y-43100000D01*
X94325000Y-43182500D02*
X95617500Y-43182500D01*
X91355000Y-42245000D02*
X91400000Y-42200000D01*
X83500000Y-42600000D02*
X83500000Y-42500000D01*
D25*
%TO.N,Net-(D1-A)*%
X72852500Y-60947500D02*
X72800000Y-61000000D01*
X72852500Y-56200000D02*
X72852500Y-60947500D01*
%TO.N,PGC*%
X91675000Y-46835000D02*
X93080000Y-46835000D01*
X93080000Y-46835000D02*
X98125000Y-51880000D01*
%TO.N,Analog*%
X94325000Y-45540000D02*
X94325000Y-45007500D01*
X98125000Y-49340000D02*
X99425000Y-50640000D01*
X97300000Y-64600000D02*
X97250000Y-64650000D01*
X81750000Y-64700000D02*
X85900000Y-64700000D01*
X94350000Y-45565000D02*
X94692500Y-45907500D01*
X98125000Y-49340000D02*
X94692500Y-45907500D01*
X94692500Y-45907500D02*
X94325000Y-45540000D01*
X99425000Y-50640000D02*
X99425000Y-64625000D01*
X85900000Y-64700000D02*
X87000000Y-64700000D01*
X98100000Y-64650000D02*
X97350000Y-64650000D01*
X97250000Y-64650000D02*
X95250000Y-64650000D01*
X99400000Y-64650000D02*
X98100000Y-64650000D01*
X97350000Y-64650000D02*
X97300000Y-64600000D01*
X91675000Y-45565000D02*
X94350000Y-45565000D01*
X99425000Y-64625000D02*
X99400000Y-64650000D01*
%TO.N,MCLR*%
X87699999Y-48105000D02*
X89828122Y-45976877D01*
X90597316Y-43545000D02*
X91555000Y-43545000D01*
X89828122Y-45976877D02*
X89828122Y-44314194D01*
X89828122Y-44314194D02*
X90597316Y-43545000D01*
X86725000Y-48105000D02*
X87699999Y-48105000D01*
X91555000Y-43545000D02*
X93400000Y-41700000D01*
D26*
%TO.N,Net-(Q1-B)*%
X83525000Y-45200000D02*
X84900000Y-43825000D01*
X84900000Y-42500000D02*
X83700000Y-41300000D01*
X84900000Y-43825000D02*
X84900000Y-42500000D01*
X83700000Y-41300000D02*
X83512500Y-41300000D01*
D25*
%TO.N,LED*%
X74677500Y-56200000D02*
X75800000Y-56200000D01*
X86725000Y-45565000D02*
X86167316Y-45565000D01*
X82732316Y-49000000D02*
X82700000Y-49000000D01*
X86167316Y-45565000D02*
X82732316Y-49000000D01*
%TO.N,Net-(R3-Pad2)*%
X79625000Y-66887500D02*
X85862500Y-66887500D01*
X85862500Y-66887500D02*
X85900000Y-66850000D01*
%TO.N,Net-(R4-Pad2)*%
X99400000Y-66800000D02*
X93162500Y-66800000D01*
X93162500Y-66800000D02*
X93125000Y-66837500D01*
D26*
%TO.N,Buzzer*%
X89900000Y-48100000D02*
X89905000Y-48105000D01*
X81687500Y-43087500D02*
X81700000Y-43100000D01*
X81687500Y-41300000D02*
X81687500Y-43087500D01*
X91675000Y-48105000D02*
X89900000Y-48100000D01*
%TD*%
M02*
