%TF.GenerationSoftware,KiCad,Pcbnew,8.0.6*%
%TF.CreationDate,2024-10-18T13:40:27-03:00*%
%TF.ProjectId,FritzenLab-egg-timer,46726974-7a65-46e4-9c61-622d6567672d,rev?*%
%TF.SameCoordinates,Original*%
%TF.FileFunction,Copper,L2,Bot*%
%TF.FilePolarity,Positive*%
%FSLAX46Y46*%
G04 Gerber Fmt 4.6, Leading zero omitted, Abs format (unit mm)*
G04 Created by KiCad (PCBNEW 8.0.6) date 2024-10-18 13:40:27*
%MOMM*%
%LPD*%
G01*
G04 APERTURE LIST*
%TA.AperFunction,ComponentPad*%
%ADD10R,1.700000X1.700000*%
%TD*%
%TA.AperFunction,ComponentPad*%
%ADD11O,1.700000X1.700000*%
%TD*%
%TA.AperFunction,ComponentPad*%
%ADD12R,1.800000X1.800000*%
%TD*%
%TA.AperFunction,ComponentPad*%
%ADD13C,1.800000*%
%TD*%
%TA.AperFunction,ComponentPad*%
%ADD14R,2.000000X2.000000*%
%TD*%
%TA.AperFunction,ComponentPad*%
%ADD15C,2.000000*%
%TD*%
%TA.AperFunction,ViaPad*%
%ADD16C,0.600000*%
%TD*%
%TA.AperFunction,Conductor*%
%ADD17C,0.500000*%
%TD*%
%TA.AperFunction,Conductor*%
%ADD18C,0.250000*%
%TD*%
G04 APERTURE END LIST*
D10*
%TO.P,J1,1,Pin_1*%
%TO.N,VCC*%
X89720000Y-37800000D03*
D11*
%TO.P,J1,2,Pin_2*%
%TO.N,unconnected-(J1-Pin_2-Pad2)*%
X87180000Y-37800000D03*
%TO.P,J1,3,Pin_3*%
%TO.N,unconnected-(J1-Pin_3-Pad3)*%
X84640000Y-37800000D03*
%TO.P,J1,4,Pin_4*%
%TO.N,unconnected-(J1-Pin_4-Pad4)*%
X82100000Y-37800000D03*
%TO.P,J1,5,Pin_5*%
%TO.N,GND*%
X79560000Y-37800000D03*
%TD*%
D12*
%TO.P,D1,1,K*%
%TO.N,GND*%
X75340000Y-61000000D03*
D13*
%TO.P,D1,2,A*%
%TO.N,Net-(D1-A)*%
X72800000Y-61000000D03*
%TD*%
D14*
%TO.P,BZ1,1,+*%
%TO.N,VCC*%
X70500000Y-47900000D03*
D15*
%TO.P,BZ1,2,-*%
%TO.N,Net-(BZ1--)*%
X78100000Y-47900000D03*
%TD*%
D10*
%TO.P,J2,1,Pin_1*%
%TO.N,MCLR*%
X98125000Y-41720000D03*
D11*
%TO.P,J2,2,Pin_2*%
%TO.N,VCC*%
X98125000Y-44260000D03*
%TO.P,J2,3,Pin_3*%
%TO.N,GND*%
X98125000Y-46800000D03*
%TO.P,J2,4,Pin_4*%
%TO.N,Analog*%
X98125000Y-49340000D03*
%TO.P,J2,5,Pin_5*%
%TO.N,PGC*%
X98125000Y-51880000D03*
%TD*%
D16*
%TO.N,Net-(BZ1--)*%
X78100000Y-44300000D03*
%TO.N,GND*%
X95700000Y-43200000D03*
X83500000Y-42500000D03*
X91400000Y-42200000D03*
%TO.N,Analog*%
X97300000Y-64600000D03*
X87000000Y-64700000D03*
%TO.N,MCLR*%
X93400000Y-41700000D03*
%TO.N,LED*%
X82700000Y-49000000D03*
X75800000Y-56200000D03*
%TO.N,Buzzer*%
X81700000Y-43100000D03*
X89900000Y-48100000D03*
%TD*%
D17*
%TO.N,Net-(BZ1--)*%
X78100000Y-44300000D02*
X78100000Y-47900000D01*
%TO.N,Analog*%
X97300000Y-64600000D02*
X87100000Y-64600000D01*
X87100000Y-64600000D02*
X87000000Y-64700000D01*
%TO.N,MCLR*%
X93400000Y-41700000D02*
X98105000Y-41700000D01*
X98105000Y-41700000D02*
X98125000Y-41720000D01*
%TO.N,LED*%
X82700000Y-49300000D02*
X82700000Y-49000000D01*
X75800000Y-56200000D02*
X82700000Y-49300000D01*
D18*
%TO.N,Buzzer*%
X81700000Y-43100000D02*
X86700000Y-48100000D01*
X86700000Y-48100000D02*
X89900000Y-48100000D01*
%TD*%
%TA.AperFunction,Conductor*%
%TO.N,GND*%
G36*
X100343039Y-35620185D02*
G01*
X100388794Y-35672989D01*
X100400000Y-35724500D01*
X100400000Y-68776000D01*
X100380315Y-68843039D01*
X100327511Y-68888794D01*
X100276000Y-68900000D01*
X67224500Y-68900000D01*
X67157461Y-68880315D01*
X67111706Y-68827511D01*
X67100500Y-68776000D01*
X67100500Y-68733500D01*
X67100501Y-68733128D01*
X67110733Y-65325788D01*
X67112612Y-64699996D01*
X86194435Y-64699996D01*
X86194435Y-64700003D01*
X86214630Y-64879249D01*
X86214631Y-64879254D01*
X86274211Y-65049523D01*
X86370184Y-65202262D01*
X86497738Y-65329816D01*
X86650478Y-65425789D01*
X86820739Y-65485366D01*
X86820745Y-65485368D01*
X86820750Y-65485369D01*
X86999996Y-65505565D01*
X87000000Y-65505565D01*
X87000004Y-65505565D01*
X87179249Y-65485369D01*
X87179251Y-65485368D01*
X87179255Y-65485368D01*
X87179258Y-65485366D01*
X87179262Y-65485366D01*
X87269377Y-65453832D01*
X87349522Y-65425789D01*
X87439096Y-65369505D01*
X87505068Y-65350500D01*
X97000028Y-65350500D01*
X97040983Y-65357458D01*
X97120745Y-65385368D01*
X97120750Y-65385369D01*
X97299996Y-65405565D01*
X97300000Y-65405565D01*
X97300004Y-65405565D01*
X97479249Y-65385369D01*
X97479252Y-65385368D01*
X97479255Y-65385368D01*
X97649522Y-65325789D01*
X97802262Y-65229816D01*
X97929816Y-65102262D01*
X98025789Y-64949522D01*
X98085368Y-64779255D01*
X98085369Y-64779249D01*
X98105565Y-64600003D01*
X98105565Y-64599996D01*
X98085369Y-64420750D01*
X98085368Y-64420745D01*
X98025789Y-64250478D01*
X97929816Y-64097738D01*
X97802262Y-63970184D01*
X97775764Y-63953534D01*
X97649523Y-63874211D01*
X97479254Y-63814631D01*
X97479249Y-63814630D01*
X97300004Y-63794435D01*
X97299996Y-63794435D01*
X97120750Y-63814630D01*
X97120745Y-63814631D01*
X97040983Y-63842542D01*
X97000028Y-63849500D01*
X87026080Y-63849500D01*
X86881092Y-63878340D01*
X86881086Y-63878342D01*
X86744501Y-63934917D01*
X86737493Y-63939600D01*
X86709567Y-63953534D01*
X86650481Y-63974210D01*
X86650478Y-63974211D01*
X86497737Y-64070184D01*
X86370184Y-64197737D01*
X86274211Y-64350476D01*
X86214631Y-64520745D01*
X86214630Y-64520750D01*
X86194435Y-64699996D01*
X67112612Y-64699996D01*
X67123724Y-60999993D01*
X71394700Y-60999993D01*
X71394700Y-61000006D01*
X71413864Y-61231297D01*
X71413866Y-61231308D01*
X71470842Y-61456300D01*
X71564075Y-61668848D01*
X71691016Y-61863147D01*
X71691019Y-61863151D01*
X71691021Y-61863153D01*
X71848216Y-62033913D01*
X71848219Y-62033915D01*
X71848222Y-62033918D01*
X72031365Y-62176464D01*
X72031371Y-62176468D01*
X72031374Y-62176470D01*
X72235497Y-62286936D01*
X72349487Y-62326068D01*
X72455015Y-62362297D01*
X72455017Y-62362297D01*
X72455019Y-62362298D01*
X72683951Y-62400500D01*
X72683952Y-62400500D01*
X72916048Y-62400500D01*
X72916049Y-62400500D01*
X73144981Y-62362298D01*
X73364503Y-62286936D01*
X73568626Y-62176470D01*
X73751784Y-62033913D01*
X73760511Y-62024432D01*
X73820394Y-61988441D01*
X73890232Y-61990538D01*
X73947850Y-62030060D01*
X73967924Y-62065080D01*
X73996645Y-62142086D01*
X73996649Y-62142093D01*
X74082809Y-62257187D01*
X74082812Y-62257190D01*
X74197906Y-62343350D01*
X74197913Y-62343354D01*
X74332620Y-62393596D01*
X74332627Y-62393598D01*
X74392155Y-62399999D01*
X74392172Y-62400000D01*
X75090000Y-62400000D01*
X75090000Y-61375277D01*
X75166306Y-61419333D01*
X75280756Y-61450000D01*
X75399244Y-61450000D01*
X75513694Y-61419333D01*
X75590000Y-61375277D01*
X75590000Y-62400000D01*
X76287828Y-62400000D01*
X76287844Y-62399999D01*
X76347372Y-62393598D01*
X76347379Y-62393596D01*
X76482086Y-62343354D01*
X76482093Y-62343350D01*
X76597187Y-62257190D01*
X76597190Y-62257187D01*
X76683350Y-62142093D01*
X76683354Y-62142086D01*
X76733596Y-62007379D01*
X76733598Y-62007372D01*
X76739999Y-61947844D01*
X76740000Y-61947827D01*
X76740000Y-61250000D01*
X75715278Y-61250000D01*
X75759333Y-61173694D01*
X75790000Y-61059244D01*
X75790000Y-60940756D01*
X75759333Y-60826306D01*
X75715278Y-60750000D01*
X76740000Y-60750000D01*
X76740000Y-60052172D01*
X76739999Y-60052155D01*
X76733598Y-59992627D01*
X76733596Y-59992620D01*
X76683354Y-59857913D01*
X76683350Y-59857906D01*
X76597190Y-59742812D01*
X76597187Y-59742809D01*
X76482093Y-59656649D01*
X76482086Y-59656645D01*
X76347379Y-59606403D01*
X76347372Y-59606401D01*
X76287844Y-59600000D01*
X75590000Y-59600000D01*
X75590000Y-60624722D01*
X75513694Y-60580667D01*
X75399244Y-60550000D01*
X75280756Y-60550000D01*
X75166306Y-60580667D01*
X75090000Y-60624722D01*
X75090000Y-59600000D01*
X74392155Y-59600000D01*
X74332627Y-59606401D01*
X74332620Y-59606403D01*
X74197913Y-59656645D01*
X74197906Y-59656649D01*
X74082812Y-59742809D01*
X74082809Y-59742812D01*
X73996649Y-59857906D01*
X73996646Y-59857911D01*
X73967924Y-59934920D01*
X73926052Y-59990853D01*
X73860588Y-60015270D01*
X73792315Y-60000418D01*
X73760514Y-59975571D01*
X73751784Y-59966087D01*
X73751779Y-59966083D01*
X73751777Y-59966081D01*
X73568634Y-59823535D01*
X73568628Y-59823531D01*
X73364504Y-59713064D01*
X73364495Y-59713061D01*
X73144984Y-59637702D01*
X72957404Y-59606401D01*
X72916049Y-59599500D01*
X72683951Y-59599500D01*
X72642596Y-59606401D01*
X72455015Y-59637702D01*
X72235504Y-59713061D01*
X72235495Y-59713064D01*
X72031371Y-59823531D01*
X72031365Y-59823535D01*
X71848222Y-59966081D01*
X71848219Y-59966084D01*
X71848216Y-59966086D01*
X71848216Y-59966087D01*
X71823791Y-59992620D01*
X71691016Y-60136852D01*
X71564075Y-60331151D01*
X71470842Y-60543699D01*
X71413866Y-60768691D01*
X71413864Y-60768702D01*
X71394700Y-60999993D01*
X67123724Y-60999993D01*
X67138138Y-56199996D01*
X74994435Y-56199996D01*
X74994435Y-56200003D01*
X75014630Y-56379249D01*
X75014631Y-56379254D01*
X75074211Y-56549523D01*
X75170184Y-56702262D01*
X75297738Y-56829816D01*
X75450478Y-56925789D01*
X75620745Y-56985368D01*
X75620750Y-56985369D01*
X75799996Y-57005565D01*
X75800000Y-57005565D01*
X75800004Y-57005565D01*
X75979249Y-56985369D01*
X75979252Y-56985368D01*
X75979255Y-56985368D01*
X76149522Y-56925789D01*
X76302262Y-56829816D01*
X76429816Y-56702262D01*
X76525789Y-56549522D01*
X76525790Y-56549520D01*
X76528812Y-56543245D01*
X76530652Y-56544131D01*
X76553307Y-56508058D01*
X83282952Y-49778415D01*
X83318115Y-49725789D01*
X83365084Y-49655495D01*
X83398257Y-49575408D01*
X83421659Y-49518912D01*
X83450500Y-49373917D01*
X83450500Y-49299972D01*
X83457458Y-49259017D01*
X83485368Y-49179254D01*
X83485369Y-49179249D01*
X83505565Y-49000003D01*
X83505565Y-48999996D01*
X83485369Y-48820750D01*
X83485368Y-48820745D01*
X83458691Y-48744506D01*
X83425789Y-48650478D01*
X83416011Y-48634917D01*
X83330441Y-48498733D01*
X83329816Y-48497738D01*
X83202262Y-48370184D01*
X83049523Y-48274211D01*
X82879254Y-48214631D01*
X82879249Y-48214630D01*
X82700004Y-48194435D01*
X82699996Y-48194435D01*
X82520750Y-48214630D01*
X82520745Y-48214631D01*
X82350476Y-48274211D01*
X82197737Y-48370184D01*
X82070184Y-48497737D01*
X81974211Y-48650476D01*
X81914631Y-48820745D01*
X81914630Y-48820749D01*
X81893680Y-49006693D01*
X81866613Y-49071107D01*
X81858141Y-49080490D01*
X75491939Y-55446692D01*
X75455872Y-55469359D01*
X75456753Y-55471188D01*
X75450483Y-55474207D01*
X75297737Y-55570184D01*
X75170184Y-55697737D01*
X75074211Y-55850476D01*
X75014631Y-56020745D01*
X75014630Y-56020750D01*
X74994435Y-56199996D01*
X67138138Y-56199996D01*
X67166210Y-46852135D01*
X68999500Y-46852135D01*
X68999500Y-48947870D01*
X68999501Y-48947876D01*
X69005908Y-49007483D01*
X69056202Y-49142328D01*
X69056206Y-49142335D01*
X69142452Y-49257544D01*
X69142455Y-49257547D01*
X69257664Y-49343793D01*
X69257671Y-49343797D01*
X69392517Y-49394091D01*
X69392516Y-49394091D01*
X69399444Y-49394835D01*
X69452127Y-49400500D01*
X71547872Y-49400499D01*
X71607483Y-49394091D01*
X71742331Y-49343796D01*
X71857546Y-49257546D01*
X71943796Y-49142331D01*
X71994091Y-49007483D01*
X72000500Y-48947873D01*
X72000499Y-47899994D01*
X76594357Y-47899994D01*
X76594357Y-47900005D01*
X76614890Y-48147812D01*
X76614892Y-48147824D01*
X76675936Y-48388881D01*
X76775826Y-48616606D01*
X76911833Y-48824782D01*
X76911836Y-48824785D01*
X77080256Y-49007738D01*
X77276491Y-49160474D01*
X77495190Y-49278828D01*
X77730386Y-49359571D01*
X77975665Y-49400500D01*
X78224335Y-49400500D01*
X78469614Y-49359571D01*
X78704810Y-49278828D01*
X78923509Y-49160474D01*
X79119744Y-49007738D01*
X79288164Y-48824785D01*
X79424173Y-48616607D01*
X79524063Y-48388881D01*
X79585108Y-48147821D01*
X79585109Y-48147812D01*
X79605643Y-47900005D01*
X79605643Y-47899994D01*
X79585109Y-47652187D01*
X79585107Y-47652175D01*
X79524063Y-47411118D01*
X79424173Y-47183393D01*
X79288166Y-46975217D01*
X79187464Y-46865826D01*
X79119744Y-46792262D01*
X78923509Y-46639526D01*
X78915477Y-46635179D01*
X78865891Y-46585961D01*
X78850500Y-46526128D01*
X78850500Y-44599972D01*
X78857458Y-44559017D01*
X78879716Y-44495408D01*
X78885368Y-44479255D01*
X78905565Y-44300000D01*
X78901058Y-44260000D01*
X78885369Y-44120750D01*
X78885368Y-44120745D01*
X78851724Y-44024596D01*
X78825789Y-43950478D01*
X78805216Y-43917737D01*
X78784877Y-43885367D01*
X78729816Y-43797738D01*
X78602262Y-43670184D01*
X78449523Y-43574211D01*
X78279254Y-43514631D01*
X78279249Y-43514630D01*
X78100004Y-43494435D01*
X78099996Y-43494435D01*
X77920750Y-43514630D01*
X77920745Y-43514631D01*
X77750476Y-43574211D01*
X77597737Y-43670184D01*
X77470184Y-43797737D01*
X77374211Y-43950476D01*
X77314631Y-44120745D01*
X77314630Y-44120750D01*
X77294435Y-44299996D01*
X77294435Y-44300003D01*
X77314630Y-44479249D01*
X77314631Y-44479254D01*
X77342542Y-44559017D01*
X77349500Y-44599972D01*
X77349500Y-46526128D01*
X77329815Y-46593167D01*
X77284522Y-46635179D01*
X77276491Y-46639526D01*
X77154887Y-46734174D01*
X77080257Y-46792261D01*
X76911833Y-46975217D01*
X76775826Y-47183393D01*
X76675936Y-47411118D01*
X76614892Y-47652175D01*
X76614890Y-47652187D01*
X76594357Y-47899994D01*
X72000499Y-47899994D01*
X72000499Y-46852128D01*
X71994091Y-46792517D01*
X71972330Y-46734174D01*
X71943797Y-46657671D01*
X71943793Y-46657664D01*
X71857547Y-46542455D01*
X71857544Y-46542452D01*
X71742335Y-46456206D01*
X71742328Y-46456202D01*
X71607482Y-46405908D01*
X71607483Y-46405908D01*
X71547883Y-46399501D01*
X71547881Y-46399500D01*
X71547873Y-46399500D01*
X71547864Y-46399500D01*
X69452129Y-46399500D01*
X69452123Y-46399501D01*
X69392516Y-46405908D01*
X69257671Y-46456202D01*
X69257664Y-46456206D01*
X69142455Y-46542452D01*
X69142452Y-46542455D01*
X69056206Y-46657664D01*
X69056202Y-46657671D01*
X69005908Y-46792517D01*
X68999501Y-46852116D01*
X68999501Y-46852123D01*
X68999500Y-46852135D01*
X67166210Y-46852135D01*
X67177478Y-43099996D01*
X80894435Y-43099996D01*
X80894435Y-43100003D01*
X80914630Y-43279249D01*
X80914631Y-43279254D01*
X80974211Y-43449523D01*
X81015122Y-43514632D01*
X81070184Y-43602262D01*
X81197738Y-43729816D01*
X81288080Y-43786582D01*
X81305833Y-43797737D01*
X81350478Y-43825789D01*
X81520745Y-43885368D01*
X81567823Y-43890672D01*
X81632236Y-43917737D01*
X81641621Y-43926211D01*
X86211016Y-48495606D01*
X86211045Y-48495637D01*
X86301263Y-48585855D01*
X86301267Y-48585858D01*
X86374687Y-48634916D01*
X86374688Y-48634917D01*
X86403709Y-48654309D01*
X86403712Y-48654310D01*
X86403715Y-48654312D01*
X86458825Y-48677139D01*
X86517548Y-48701463D01*
X86547215Y-48707363D01*
X86573980Y-48712688D01*
X86574000Y-48712691D01*
X86574022Y-48712696D01*
X86638391Y-48725499D01*
X86638392Y-48725500D01*
X86638393Y-48725500D01*
X86638394Y-48725500D01*
X89355145Y-48725500D01*
X89421117Y-48744506D01*
X89542450Y-48820745D01*
X89550478Y-48825789D01*
X89694930Y-48876335D01*
X89720745Y-48885368D01*
X89720750Y-48885369D01*
X89899996Y-48905565D01*
X89900000Y-48905565D01*
X89900004Y-48905565D01*
X90079249Y-48885369D01*
X90079252Y-48885368D01*
X90079255Y-48885368D01*
X90249522Y-48825789D01*
X90402262Y-48729816D01*
X90529816Y-48602262D01*
X90625789Y-48449522D01*
X90685368Y-48279255D01*
X90685369Y-48279249D01*
X90705565Y-48100003D01*
X90705565Y-48099996D01*
X90685369Y-47920750D01*
X90685368Y-47920745D01*
X90625788Y-47750476D01*
X90575901Y-47671082D01*
X90529816Y-47597738D01*
X90402262Y-47470184D01*
X90378883Y-47455494D01*
X90249523Y-47374211D01*
X90079254Y-47314631D01*
X90079249Y-47314630D01*
X89900004Y-47294435D01*
X89899996Y-47294435D01*
X89720750Y-47314630D01*
X89720745Y-47314631D01*
X89550476Y-47374211D01*
X89421117Y-47455494D01*
X89355145Y-47474500D01*
X87010452Y-47474500D01*
X86943413Y-47454815D01*
X86922771Y-47438181D01*
X82526211Y-43041621D01*
X82492726Y-42980298D01*
X82490673Y-42967838D01*
X82485368Y-42920745D01*
X82425789Y-42750478D01*
X82329816Y-42597738D01*
X82202262Y-42470184D01*
X82131608Y-42425789D01*
X82049523Y-42374211D01*
X81879254Y-42314631D01*
X81879249Y-42314630D01*
X81700004Y-42294435D01*
X81699996Y-42294435D01*
X81520750Y-42314630D01*
X81520745Y-42314631D01*
X81350476Y-42374211D01*
X81197737Y-42470184D01*
X81070184Y-42597737D01*
X80974211Y-42750476D01*
X80914631Y-42920745D01*
X80914630Y-42920750D01*
X80894435Y-43099996D01*
X67177478Y-43099996D01*
X67181682Y-41699996D01*
X92594435Y-41699996D01*
X92594435Y-41700003D01*
X92614630Y-41879249D01*
X92614631Y-41879254D01*
X92674211Y-42049523D01*
X92770184Y-42202262D01*
X92897738Y-42329816D01*
X93050478Y-42425789D01*
X93220745Y-42485368D01*
X93220750Y-42485369D01*
X93399996Y-42505565D01*
X93400000Y-42505565D01*
X93400004Y-42505565D01*
X93579249Y-42485369D01*
X93579252Y-42485368D01*
X93579255Y-42485368D01*
X93659017Y-42457457D01*
X93699972Y-42450500D01*
X96650501Y-42450500D01*
X96717540Y-42470185D01*
X96763295Y-42522989D01*
X96774501Y-42574500D01*
X96774501Y-42617876D01*
X96780908Y-42677483D01*
X96831202Y-42812328D01*
X96831206Y-42812335D01*
X96917452Y-42927544D01*
X96917455Y-42927547D01*
X97032664Y-43013793D01*
X97032671Y-43013797D01*
X97164081Y-43062810D01*
X97220015Y-43104681D01*
X97244432Y-43170145D01*
X97229580Y-43238418D01*
X97208430Y-43266673D01*
X97086503Y-43388600D01*
X96950965Y-43582169D01*
X96950964Y-43582171D01*
X96851098Y-43796335D01*
X96851094Y-43796344D01*
X96789938Y-44024586D01*
X96789936Y-44024596D01*
X96769341Y-44259999D01*
X96769341Y-44260000D01*
X96789936Y-44495403D01*
X96789938Y-44495413D01*
X96851094Y-44723655D01*
X96851096Y-44723659D01*
X96851097Y-44723663D01*
X96950965Y-44937830D01*
X96950967Y-44937834D01*
X97086501Y-45131395D01*
X97086506Y-45131402D01*
X97253597Y-45298493D01*
X97253603Y-45298498D01*
X97439594Y-45428730D01*
X97483219Y-45483307D01*
X97490413Y-45552805D01*
X97458890Y-45615160D01*
X97439595Y-45631880D01*
X97253922Y-45761890D01*
X97253920Y-45761891D01*
X97086891Y-45928920D01*
X97086886Y-45928926D01*
X96951400Y-46122420D01*
X96951399Y-46122422D01*
X96851570Y-46336507D01*
X96851567Y-46336513D01*
X96794364Y-46549999D01*
X96794364Y-46550000D01*
X97691988Y-46550000D01*
X97659075Y-46607007D01*
X97625000Y-46734174D01*
X97625000Y-46865826D01*
X97659075Y-46992993D01*
X97691988Y-47050000D01*
X96794364Y-47050000D01*
X96851567Y-47263486D01*
X96851570Y-47263492D01*
X96951399Y-47477578D01*
X97086894Y-47671082D01*
X97253917Y-47838105D01*
X97439595Y-47968119D01*
X97483219Y-48022696D01*
X97490412Y-48092195D01*
X97458890Y-48154549D01*
X97439595Y-48171269D01*
X97253594Y-48301508D01*
X97086505Y-48468597D01*
X96950965Y-48662169D01*
X96950964Y-48662171D01*
X96851098Y-48876335D01*
X96851094Y-48876344D01*
X96789938Y-49104586D01*
X96789936Y-49104596D01*
X96769341Y-49339999D01*
X96769341Y-49340000D01*
X96789936Y-49575403D01*
X96789938Y-49575413D01*
X96851094Y-49803655D01*
X96851096Y-49803659D01*
X96851097Y-49803663D01*
X96950965Y-50017830D01*
X96950967Y-50017834D01*
X97086501Y-50211395D01*
X97086506Y-50211402D01*
X97253597Y-50378493D01*
X97253603Y-50378498D01*
X97439158Y-50508425D01*
X97482783Y-50563002D01*
X97489977Y-50632500D01*
X97458454Y-50694855D01*
X97439158Y-50711575D01*
X97253597Y-50841505D01*
X97086505Y-51008597D01*
X96950965Y-51202169D01*
X96950964Y-51202171D01*
X96851098Y-51416335D01*
X96851094Y-51416344D01*
X96789938Y-51644586D01*
X96789936Y-51644596D01*
X96769341Y-51879999D01*
X96769341Y-51880000D01*
X96789936Y-52115403D01*
X96789938Y-52115413D01*
X96851094Y-52343655D01*
X96851096Y-52343659D01*
X96851097Y-52343663D01*
X96950965Y-52557830D01*
X96950967Y-52557834D01*
X97059281Y-52712521D01*
X97086505Y-52751401D01*
X97253599Y-52918495D01*
X97350384Y-52986265D01*
X97447165Y-53054032D01*
X97447167Y-53054033D01*
X97447170Y-53054035D01*
X97661337Y-53153903D01*
X97889592Y-53215063D01*
X98077918Y-53231539D01*
X98124999Y-53235659D01*
X98125000Y-53235659D01*
X98125001Y-53235659D01*
X98164234Y-53232226D01*
X98360408Y-53215063D01*
X98588663Y-53153903D01*
X98802830Y-53054035D01*
X98996401Y-52918495D01*
X99163495Y-52751401D01*
X99299035Y-52557830D01*
X99398903Y-52343663D01*
X99460063Y-52115408D01*
X99480659Y-51880000D01*
X99460063Y-51644592D01*
X99398903Y-51416337D01*
X99299035Y-51202171D01*
X99163495Y-51008599D01*
X99163494Y-51008597D01*
X98996402Y-50841506D01*
X98996396Y-50841501D01*
X98810842Y-50711575D01*
X98767217Y-50656998D01*
X98760023Y-50587500D01*
X98791546Y-50525145D01*
X98810842Y-50508425D01*
X98833026Y-50492891D01*
X98996401Y-50378495D01*
X99163495Y-50211401D01*
X99299035Y-50017830D01*
X99398903Y-49803663D01*
X99460063Y-49575408D01*
X99480659Y-49340000D01*
X99460063Y-49104592D01*
X99398903Y-48876337D01*
X99299035Y-48662171D01*
X99290847Y-48650476D01*
X99163494Y-48468597D01*
X98996402Y-48301506D01*
X98996401Y-48301505D01*
X98810405Y-48171269D01*
X98766781Y-48116692D01*
X98759588Y-48047193D01*
X98791110Y-47984839D01*
X98810405Y-47968119D01*
X98996082Y-47838105D01*
X99163105Y-47671082D01*
X99298600Y-47477578D01*
X99398429Y-47263492D01*
X99398432Y-47263486D01*
X99455636Y-47050000D01*
X98558012Y-47050000D01*
X98590925Y-46992993D01*
X98625000Y-46865826D01*
X98625000Y-46734174D01*
X98590925Y-46607007D01*
X98558012Y-46550000D01*
X99455636Y-46550000D01*
X99455635Y-46549999D01*
X99398432Y-46336513D01*
X99398429Y-46336507D01*
X99298600Y-46122422D01*
X99298599Y-46122420D01*
X99163113Y-45928926D01*
X99163108Y-45928920D01*
X98996078Y-45761890D01*
X98810405Y-45631879D01*
X98766780Y-45577302D01*
X98759588Y-45507804D01*
X98791110Y-45445449D01*
X98810406Y-45428730D01*
X98996401Y-45298495D01*
X99163495Y-45131401D01*
X99299035Y-44937830D01*
X99398903Y-44723663D01*
X99460063Y-44495408D01*
X99480659Y-44260000D01*
X99460063Y-44024592D01*
X99406794Y-43825788D01*
X99398905Y-43796344D01*
X99398904Y-43796343D01*
X99398903Y-43796337D01*
X99299035Y-43582171D01*
X99293461Y-43574211D01*
X99163496Y-43388600D01*
X99163495Y-43388599D01*
X99041567Y-43266671D01*
X99008084Y-43205351D01*
X99013068Y-43135659D01*
X99054939Y-43079725D01*
X99085915Y-43062810D01*
X99217331Y-43013796D01*
X99332546Y-42927546D01*
X99418796Y-42812331D01*
X99469091Y-42677483D01*
X99475500Y-42617873D01*
X99475499Y-40822128D01*
X99469091Y-40762517D01*
X99418796Y-40627669D01*
X99418795Y-40627668D01*
X99418793Y-40627664D01*
X99332547Y-40512455D01*
X99332544Y-40512452D01*
X99217335Y-40426206D01*
X99217328Y-40426202D01*
X99082482Y-40375908D01*
X99082483Y-40375908D01*
X99022883Y-40369501D01*
X99022881Y-40369500D01*
X99022873Y-40369500D01*
X99022864Y-40369500D01*
X97227129Y-40369500D01*
X97227123Y-40369501D01*
X97167516Y-40375908D01*
X97032671Y-40426202D01*
X97032664Y-40426206D01*
X96917455Y-40512452D01*
X96917452Y-40512455D01*
X96831206Y-40627664D01*
X96831202Y-40627671D01*
X96780908Y-40762517D01*
X96774501Y-40822116D01*
X96774501Y-40822123D01*
X96774500Y-40822135D01*
X96774500Y-40825500D01*
X96754815Y-40892539D01*
X96702011Y-40938294D01*
X96650500Y-40949500D01*
X93699972Y-40949500D01*
X93659017Y-40942542D01*
X93579254Y-40914631D01*
X93579249Y-40914630D01*
X93400004Y-40894435D01*
X93399996Y-40894435D01*
X93220750Y-40914630D01*
X93220745Y-40914631D01*
X93050476Y-40974211D01*
X92897737Y-41070184D01*
X92770184Y-41197737D01*
X92674211Y-41350476D01*
X92614631Y-41520745D01*
X92614630Y-41520750D01*
X92594435Y-41699996D01*
X67181682Y-41699996D01*
X67194144Y-37549999D01*
X78229364Y-37549999D01*
X78229364Y-37550000D01*
X79126988Y-37550000D01*
X79094075Y-37607007D01*
X79060000Y-37734174D01*
X79060000Y-37865826D01*
X79094075Y-37992993D01*
X79126988Y-38050000D01*
X78229364Y-38050000D01*
X78286567Y-38263486D01*
X78286570Y-38263492D01*
X78386399Y-38477578D01*
X78521894Y-38671082D01*
X78688917Y-38838105D01*
X78882421Y-38973600D01*
X79096507Y-39073429D01*
X79096516Y-39073433D01*
X79310000Y-39130634D01*
X79310000Y-38233012D01*
X79367007Y-38265925D01*
X79494174Y-38300000D01*
X79625826Y-38300000D01*
X79752993Y-38265925D01*
X79810000Y-38233012D01*
X79810000Y-39130633D01*
X80023483Y-39073433D01*
X80023492Y-39073429D01*
X80237578Y-38973600D01*
X80431082Y-38838105D01*
X80598105Y-38671082D01*
X80728119Y-38485405D01*
X80782696Y-38441781D01*
X80852195Y-38434588D01*
X80914549Y-38466110D01*
X80931269Y-38485405D01*
X81061505Y-38671401D01*
X81228599Y-38838495D01*
X81325384Y-38906265D01*
X81422165Y-38974032D01*
X81422167Y-38974033D01*
X81422170Y-38974035D01*
X81636337Y-39073903D01*
X81864592Y-39135063D01*
X82041034Y-39150500D01*
X82099999Y-39155659D01*
X82100000Y-39155659D01*
X82100001Y-39155659D01*
X82158966Y-39150500D01*
X82335408Y-39135063D01*
X82563663Y-39073903D01*
X82777830Y-38974035D01*
X82971401Y-38838495D01*
X83138495Y-38671401D01*
X83268425Y-38485842D01*
X83323002Y-38442217D01*
X83392500Y-38435023D01*
X83454855Y-38466546D01*
X83471575Y-38485842D01*
X83601281Y-38671082D01*
X83601505Y-38671401D01*
X83768599Y-38838495D01*
X83865384Y-38906265D01*
X83962165Y-38974032D01*
X83962167Y-38974033D01*
X83962170Y-38974035D01*
X84176337Y-39073903D01*
X84404592Y-39135063D01*
X84581034Y-39150500D01*
X84639999Y-39155659D01*
X84640000Y-39155659D01*
X84640001Y-39155659D01*
X84698966Y-39150500D01*
X84875408Y-39135063D01*
X85103663Y-39073903D01*
X85317830Y-38974035D01*
X85511401Y-38838495D01*
X85678495Y-38671401D01*
X85808425Y-38485842D01*
X85863002Y-38442217D01*
X85932500Y-38435023D01*
X85994855Y-38466546D01*
X86011575Y-38485842D01*
X86141281Y-38671082D01*
X86141505Y-38671401D01*
X86308599Y-38838495D01*
X86405384Y-38906265D01*
X86502165Y-38974032D01*
X86502167Y-38974033D01*
X86502170Y-38974035D01*
X86716337Y-39073903D01*
X86944592Y-39135063D01*
X87121034Y-39150500D01*
X87179999Y-39155659D01*
X87180000Y-39155659D01*
X87180001Y-39155659D01*
X87238966Y-39150500D01*
X87415408Y-39135063D01*
X87643663Y-39073903D01*
X87857830Y-38974035D01*
X88051401Y-38838495D01*
X88173329Y-38716566D01*
X88234648Y-38683084D01*
X88304340Y-38688068D01*
X88360274Y-38729939D01*
X88377189Y-38760917D01*
X88426202Y-38892328D01*
X88426206Y-38892335D01*
X88512452Y-39007544D01*
X88512455Y-39007547D01*
X88627664Y-39093793D01*
X88627671Y-39093797D01*
X88762517Y-39144091D01*
X88762516Y-39144091D01*
X88769444Y-39144835D01*
X88822127Y-39150500D01*
X90617872Y-39150499D01*
X90677483Y-39144091D01*
X90812331Y-39093796D01*
X90927546Y-39007546D01*
X91013796Y-38892331D01*
X91064091Y-38757483D01*
X91070500Y-38697873D01*
X91070499Y-36902128D01*
X91064091Y-36842517D01*
X91062810Y-36839083D01*
X91013797Y-36707671D01*
X91013793Y-36707664D01*
X90927547Y-36592455D01*
X90927544Y-36592452D01*
X90812335Y-36506206D01*
X90812328Y-36506202D01*
X90677482Y-36455908D01*
X90677483Y-36455908D01*
X90617883Y-36449501D01*
X90617881Y-36449500D01*
X90617873Y-36449500D01*
X90617864Y-36449500D01*
X88822129Y-36449500D01*
X88822123Y-36449501D01*
X88762516Y-36455908D01*
X88627671Y-36506202D01*
X88627664Y-36506206D01*
X88512455Y-36592452D01*
X88512452Y-36592455D01*
X88426206Y-36707664D01*
X88426203Y-36707669D01*
X88377189Y-36839083D01*
X88335317Y-36895016D01*
X88269853Y-36919433D01*
X88201580Y-36904581D01*
X88173326Y-36883430D01*
X88051402Y-36761506D01*
X88051395Y-36761501D01*
X87857834Y-36625967D01*
X87857830Y-36625965D01*
X87857828Y-36625964D01*
X87643663Y-36526097D01*
X87643659Y-36526096D01*
X87643655Y-36526094D01*
X87415413Y-36464938D01*
X87415403Y-36464936D01*
X87180001Y-36444341D01*
X87179999Y-36444341D01*
X86944596Y-36464936D01*
X86944586Y-36464938D01*
X86716344Y-36526094D01*
X86716335Y-36526098D01*
X86502171Y-36625964D01*
X86502169Y-36625965D01*
X86308597Y-36761505D01*
X86141505Y-36928597D01*
X86011575Y-37114158D01*
X85956998Y-37157783D01*
X85887500Y-37164977D01*
X85825145Y-37133454D01*
X85808425Y-37114158D01*
X85678494Y-36928597D01*
X85511402Y-36761506D01*
X85511395Y-36761501D01*
X85317834Y-36625967D01*
X85317830Y-36625965D01*
X85317828Y-36625964D01*
X85103663Y-36526097D01*
X85103659Y-36526096D01*
X85103655Y-36526094D01*
X84875413Y-36464938D01*
X84875403Y-36464936D01*
X84640001Y-36444341D01*
X84639999Y-36444341D01*
X84404596Y-36464936D01*
X84404586Y-36464938D01*
X84176344Y-36526094D01*
X84176335Y-36526098D01*
X83962171Y-36625964D01*
X83962169Y-36625965D01*
X83768597Y-36761505D01*
X83601505Y-36928597D01*
X83471575Y-37114158D01*
X83416998Y-37157783D01*
X83347500Y-37164977D01*
X83285145Y-37133454D01*
X83268425Y-37114158D01*
X83138494Y-36928597D01*
X82971402Y-36761506D01*
X82971395Y-36761501D01*
X82777834Y-36625967D01*
X82777830Y-36625965D01*
X82777828Y-36625964D01*
X82563663Y-36526097D01*
X82563659Y-36526096D01*
X82563655Y-36526094D01*
X82335413Y-36464938D01*
X82335403Y-36464936D01*
X82100001Y-36444341D01*
X82099999Y-36444341D01*
X81864596Y-36464936D01*
X81864586Y-36464938D01*
X81636344Y-36526094D01*
X81636335Y-36526098D01*
X81422171Y-36625964D01*
X81422169Y-36625965D01*
X81228597Y-36761505D01*
X81061508Y-36928594D01*
X80931269Y-37114595D01*
X80876692Y-37158219D01*
X80807193Y-37165412D01*
X80744839Y-37133890D01*
X80728119Y-37114594D01*
X80598113Y-36928926D01*
X80598108Y-36928920D01*
X80431082Y-36761894D01*
X80237578Y-36626399D01*
X80023492Y-36526570D01*
X80023486Y-36526567D01*
X79810000Y-36469364D01*
X79810000Y-37366988D01*
X79752993Y-37334075D01*
X79625826Y-37300000D01*
X79494174Y-37300000D01*
X79367007Y-37334075D01*
X79310000Y-37366988D01*
X79310000Y-36469364D01*
X79309999Y-36469364D01*
X79096513Y-36526567D01*
X79096507Y-36526570D01*
X78882422Y-36626399D01*
X78882420Y-36626400D01*
X78688926Y-36761886D01*
X78688920Y-36761891D01*
X78521891Y-36928920D01*
X78521886Y-36928926D01*
X78386400Y-37122420D01*
X78386399Y-37122422D01*
X78286570Y-37336507D01*
X78286567Y-37336513D01*
X78229364Y-37549999D01*
X67194144Y-37549999D01*
X67199627Y-35724127D01*
X67219512Y-35657148D01*
X67272453Y-35611551D01*
X67323626Y-35600500D01*
X100276000Y-35600500D01*
X100343039Y-35620185D01*
G37*
%TD.AperFunction*%
%TD*%
M02*
