M48
; DRILL file {KiCad 8.0.6} date 2024-10-18T13:40:34-0300
; FORMAT={-:-/ absolute / inch / decimal}
; #@! TF.CreationDate,2024-10-18T13:40:34-03:00
; #@! TF.GenerationSoftware,Kicad,Pcbnew,8.0.6
; #@! TF.FileFunction,Plated,1,2,PTH
FMAT,2
INCH
; #@! TA.AperFunction,Plated,PTH,ViaDrill
T1C0.0118
; #@! TA.AperFunction,Plated,PTH,ComponentDrill
T2C0.0354
; #@! TA.AperFunction,Plated,PTH,ComponentDrill
T3C0.0394
%
G90
G05
T1
X2.9843Y-2.2126
X3.0748Y-1.7441
X3.2165Y-1.6969
X3.2559Y-1.9291
X3.2874Y-1.6732
X3.4252Y-2.5472
X3.5394Y-1.8937
X3.5984Y-1.6614
X3.6772Y-1.6417
X3.7677Y-1.7008
X3.8307Y-2.5433
T2
X2.8661Y-2.4016
X2.9661Y-2.4016
T3
X2.7756Y-1.8858
X3.0748Y-1.8858
X3.1323Y-1.4882
X3.2323Y-1.4882
X3.3323Y-1.4882
X3.4323Y-1.4882
X3.5323Y-1.4882
X3.8632Y-1.6425
X3.8632Y-1.7425
X3.8632Y-1.8425
X3.8632Y-1.9425
X3.8632Y-2.0425
M30
