%TF.GenerationSoftware,KiCad,Pcbnew,8.0.6*%
%TF.CreationDate,2024-10-18T13:40:27-03:00*%
%TF.ProjectId,FritzenLab-egg-timer,46726974-7a65-46e4-9c61-622d6567672d,rev?*%
%TF.SameCoordinates,Original*%
%TF.FileFunction,Soldermask,Top*%
%TF.FilePolarity,Negative*%
%FSLAX46Y46*%
G04 Gerber Fmt 4.6, Leading zero omitted, Abs format (unit mm)*
G04 Created by KiCad (PCBNEW 8.0.6) date 2024-10-18 13:40:27*
%MOMM*%
%LPD*%
G01*
G04 APERTURE LIST*
G04 Aperture macros list*
%AMRoundRect*
0 Rectangle with rounded corners*
0 $1 Rounding radius*
0 $2 $3 $4 $5 $6 $7 $8 $9 X,Y pos of 4 corners*
0 Add a 4 corners polygon primitive as box body*
4,1,4,$2,$3,$4,$5,$6,$7,$8,$9,$2,$3,0*
0 Add four circle primitives for the rounded corners*
1,1,$1+$1,$2,$3*
1,1,$1+$1,$4,$5*
1,1,$1+$1,$6,$7*
1,1,$1+$1,$8,$9*
0 Add four rect primitives between the rounded corners*
20,1,$1+$1,$2,$3,$4,$5,0*
20,1,$1+$1,$4,$5,$6,$7,0*
20,1,$1+$1,$6,$7,$8,$9,0*
20,1,$1+$1,$8,$9,$2,$3,0*%
G04 Aperture macros list end*
%ADD10RoundRect,0.250000X0.450000X-0.262500X0.450000X0.262500X-0.450000X0.262500X-0.450000X-0.262500X0*%
%ADD11RoundRect,0.250000X-0.250000X-0.475000X0.250000X-0.475000X0.250000X0.475000X-0.250000X0.475000X0*%
%ADD12RoundRect,0.250000X-0.450000X0.262500X-0.450000X-0.262500X0.450000X-0.262500X0.450000X0.262500X0*%
%ADD13R,1.700000X1.700000*%
%ADD14O,1.700000X1.700000*%
%ADD15RoundRect,0.150000X0.587500X0.150000X-0.587500X0.150000X-0.587500X-0.150000X0.587500X-0.150000X0*%
%ADD16R,1.050000X0.650000*%
%ADD17RoundRect,0.150000X-0.825000X-0.150000X0.825000X-0.150000X0.825000X0.150000X-0.825000X0.150000X0*%
%ADD18R,1.800000X1.800000*%
%ADD19C,1.800000*%
%ADD20R,2.000000X2.000000*%
%ADD21C,2.000000*%
%ADD22RoundRect,0.250000X-0.262500X-0.450000X0.262500X-0.450000X0.262500X0.450000X-0.262500X0.450000X0*%
%ADD23RoundRect,0.250000X0.262500X0.450000X-0.262500X0.450000X-0.262500X-0.450000X0.262500X-0.450000X0*%
G04 APERTURE END LIST*
D10*
%TO.C,R2*%
X94325000Y-45007500D03*
X94325000Y-43182500D03*
%TD*%
D11*
%TO.C,C1*%
X88475000Y-42245000D03*
X90375000Y-42245000D03*
%TD*%
D12*
%TO.C,R3*%
X79625000Y-65062500D03*
X79625000Y-66887500D03*
%TD*%
D13*
%TO.C,J1*%
X89720000Y-37800000D03*
D14*
X87180000Y-37800000D03*
X84640000Y-37800000D03*
X82100000Y-37800000D03*
X79560000Y-37800000D03*
%TD*%
D15*
%TO.C,Q1*%
X83525000Y-45200000D03*
X83525000Y-43300000D03*
X81650000Y-44250000D03*
%TD*%
D16*
%TO.C,SW2*%
X85900000Y-66850000D03*
X81750000Y-66850000D03*
X85900000Y-64700000D03*
X81750000Y-64700000D03*
%TD*%
D17*
%TO.C,U1*%
X86725000Y-44295000D03*
X86725000Y-45565000D03*
X86725000Y-46835000D03*
X86725000Y-48105000D03*
X91675000Y-48105000D03*
X91675000Y-46835000D03*
X91675000Y-45565000D03*
X91675000Y-44295000D03*
%TD*%
D18*
%TO.C,D1*%
X75340000Y-61000000D03*
D19*
X72800000Y-61000000D03*
%TD*%
D12*
%TO.C,R4*%
X93125000Y-65012500D03*
X93125000Y-66837500D03*
%TD*%
D20*
%TO.C,BZ1*%
X70500000Y-47900000D03*
D21*
X78100000Y-47900000D03*
%TD*%
D22*
%TO.C,R5*%
X81687500Y-41300000D03*
X83512500Y-41300000D03*
%TD*%
D23*
%TO.C,R1*%
X74677500Y-56200000D03*
X72852500Y-56200000D03*
%TD*%
D13*
%TO.C,J2*%
X98125000Y-41720000D03*
D14*
X98125000Y-44260000D03*
X98125000Y-46800000D03*
X98125000Y-49340000D03*
X98125000Y-51880000D03*
%TD*%
D16*
%TO.C,SW1*%
X99400000Y-66800000D03*
X95250000Y-66800000D03*
X99400000Y-64650000D03*
X95250000Y-64650000D03*
%TD*%
M02*
