  0
SECTION
  2
HEADER
  9
$ACADVER
  1
AC1006
  9
$EXTMIN
 10
0.000000
 20
0.000000
 30
0.000000
  9
$EXTMAX
 10
225.000000
 20
205.000000
 30
0.000000
  0
ENDSEC
  0
SECTION
  2
ENTITIES
  0
POLYLINE
  8
0
 66
1
 70
1
  0
VERTEX
  8
0
 10
57.335372
 20
203.577376
 42
0.096503
  0
VERTEX
  8
0
 10
40.596088
 20
195.893541
 42
0.065553
  0
VERTEX
  8
0
 10
25.263696
 20
181.504549
 42
0.058665
  0
VERTEX
  8
0
 10
12.679987
 20
161.829560
 42
0.048951
  0
VERTEX
  8
0
 10
4.074858
 20
138.544905
 42
0.071872
  0
VERTEX
  8
0
 10
0.287343
 20
105.072176
 42
0.079241
  0
VERTEX
  8
0
 10
6.408926
 20
73.065242
 42
0.086237
  0
VERTEX
  8
0
 10
21.456800
 20
46.733299
 42
0.109414
  0
VERTEX
  8
0
 10
43.500000
 20
29.568477
 42
0.022181
  0
VERTEX
  8
0
 10
50.305741
 20
26.696697
 42
0.038257
  0
VERTEX
  8
0
 10
56.213274
 20
25.007770
 42
0.037301
  0
VERTEX
  8
0
 10
62.411793
 20
24.213649
 42
0.019928
  0
VERTEX
  8
0
 10
70.139647
 20
24.113168
 42
0.000000
  0
VERTEX
  8
0
 10
79.811559
 20
24.372909
 42
0.000000
  0
VERTEX
  8
0
 10
85.431844
 20
19.236285
 42
0.049016
  0
VERTEX
  8
0
 10
93.906947
 20
12.893055
 42
0.051849
  0
VERTEX
  8
0
 10
103.301207
 20
8.459501
 42
0.048757
  0
VERTEX
  8
0
 10
113.911612
 20
5.863991
 42
0.035633
  0
VERTEX
  8
0
 10
126.019708
 20
5.000000
 42
0.090031
  0
VERTEX
  8
0
 10
154.873461
 20
10.237942
 42
0.078760
  0
VERTEX
  8
0
 10
181.567816
 20
25.393078
 42
0.074148
  0
VERTEX
  8
0
 10
203.573812
 20
49.051705
 42
0.066228
  0
VERTEX
  8
0
 10
218.746436
 20
79.000000
 42
0.017158
  0
VERTEX
  8
0
 10
221.444096
 20
87.648449
 42
0.024495
  0
VERTEX
  8
0
 10
223.191344
 20
95.496281
 42
0.025019
  0
VERTEX
  8
0
 10
224.138555
 20
103.347810
 42
0.019099
  0
VERTEX
  8
0
 10
224.414116
 20
112.000000
 42
0.067274
  0
VERTEX
  8
0
 10
221.759916
 20
130.739521
 42
0.097219
  0
VERTEX
  8
0
 10
214.220761
 20
145.622850
 42
0.100022
  0
VERTEX
  8
0
 10
201.805931
 20
156.265971
 42
0.074923
  0
VERTEX
  8
0
 10
184.905936
 20
162.622617
 42
0.054979
  0
VERTEX
  8
0
 10
173.611403
 20
163.759833
 42
0.031655
  0
VERTEX
  8
0
 10
159.959465
 20
162.764384
 42
0.030912
  0
VERTEX
  8
0
 10
145.973512
 20
159.960160
 42
0.039629
  0
VERTEX
  8
0
 10
133.596285
 20
155.597203
 42
-0.004976
  0
VERTEX
  8
0
 10
131.314681
 20
154.610526
 42
-0.008047
  0
VERTEX
  8
0
 10
129.352231
 20
153.821877
 42
-0.002735
  0
VERTEX
  8
0
 10
127.664628
 20
153.185590
 42
-0.297919
  0
VERTEX
  8
0
 10
127.438767
 20
153.237049
 42
-0.082677
  0
VERTEX
  8
0
 10
127.283467
 20
153.462733
 42
-0.000905
  0
VERTEX
  8
0
 10
126.492496
 20
155.160768
 42
-0.002806
  0
VERTEX
  8
0
 10
125.592947
 20
157.129946
 42
-0.001820
  0
VERTEX
  8
0
 10
124.573820
 20
159.416630
 42
0.030449
  0
VERTEX
  8
0
 10
120.768868
 20
166.788246
 42
0.020440
  0
VERTEX
  8
0
 10
115.585116
 20
174.730682
 42
0.020312
  0
VERTEX
  8
0
 10
109.709753
 20
182.305074
 42
0.027974
  0
VERTEX
  8
0
 10
103.800791
 20
188.568415
 42
0.047550
  0
VERTEX
  8
0
 10
92.680616
 20
197.262124
 42
0.064108
  0
VERTEX
  8
0
 10
81.138805
 20
202.702473
 42
0.069097
  0
VERTEX
  8
0
 10
69.309141
 20
204.787477
 42
0.068711
  0
SEQEND
  0
POLYLINE
  8
0
 66
1
 70
1
  0
VERTEX
  8
0
 10
80.168115
 20
197.943366
 42
-0.050900
  0
VERTEX
  8
0
 10
89.008507
 20
193.924787
 42
-0.041684
  0
VERTEX
  8
0
 10
97.510907
 20
187.961002
 42
-0.039046
  0
VERTEX
  8
0
 10
105.428025
 20
180.236993
 42
-0.033258
  0
VERTEX
  8
0
 10
112.521276
 20
170.967996
 42
-0.018939
  0
VERTEX
  8
0
 10
116.068021
 20
165.167940
 42
-0.014117
  0
VERTEX
  8
0
 10
119.550005
 20
158.523959
 42
-0.010647
  0
VERTEX
  8
0
 10
122.412247
 20
152.335317
 42
-0.103342
  0
VERTEX
  8
0
 10
123.000000
 20
149.521957
 42
0.314805
  0
VERTEX
  8
0
 10
123.809364
 20
148.363852
 42
0.110078
  0
VERTEX
  8
0
 10
125.934673
 20
148.082557
 42
0.056317
  0
VERTEX
  8
0
 10
129.373236
 20
148.780294
 42
0.021422
  0
VERTEX
  8
0
 10
133.966796
 20
150.486025
 42
-0.031168
  0
VERTEX
  8
0
 10
146.735586
 20
154.946451
 42
-0.030232
  0
VERTEX
  8
0
 10
160.089942
 20
157.839047
 42
-0.031879
  0
VERTEX
  8
0
 10
172.771538
 20
158.972306
 42
-0.052911
  0
VERTEX
  8
0
 10
183.463019
 20
158.111578
 42
-0.100061
  0
VERTEX
  8
0
 10
201.106406
 20
150.951522
 42
-0.117308
  0
VERTEX
  8
0
 10
213.418236
 20
137.795782
 42
-0.105163
  0
VERTEX
  8
0
 10
219.334266
 20
119.274053
 42
-0.068170
  0
VERTEX
  8
0
 10
218.510210
 20
96.718892
 42
-0.040918
  0
VERTEX
  8
0
 10
214.365843
 20
80.783639
 42
-0.036502
  0
VERTEX
  8
0
 10
207.559105
 20
65.088377
 42
-0.036160
  0
VERTEX
  8
0
 10
198.463812
 20
50.401039
 42
-0.038243
  0
VERTEX
  8
0
 10
187.500000
 20
37.468524
 42
-0.041526
  0
VERTEX
  8
0
 10
173.556400
 20
25.528518
 42
-0.049725
  0
VERTEX
  8
0
 10
158.611465
 20
16.856730
 42
-0.052011
  0
VERTEX
  8
0
 10
142.854588
 20
11.591776
 42
-0.053491
  0
VERTEX
  8
0
 10
126.500000
 20
9.757900
 42
-0.038414
  0
VERTEX
  8
0
 10
114.571616
 20
10.618294
 42
-0.051578
  0
VERTEX
  8
0
 10
104.083269
 20
13.317199
 42
-0.054534
  0
VERTEX
  8
0
 10
94.828522
 20
17.947314
 42
-0.051186
  0
VERTEX
  8
0
 10
86.576212
 20
24.554397
 42
0.011202
  0
VERTEX
  8
0
 10
83.627101
 20
27.329489
 42
0.051609
  0
VERTEX
  8
0
 10
81.733528
 20
28.708604
 42
0.088463
  0
VERTEX
  8
0
 10
80.137977
 20
29.290816
 42
0.081999
  0
VERTEX
  8
0
 10
78.395007
 20
29.307872
 42
-0.032773
  0
VERTEX
  8
0
 10
72.310423
 20
28.769046
 42
-0.021260
  0
VERTEX
  8
0
 10
65.246102
 20
28.908302
 42
-0.021410
  0
VERTEX
  8
0
 10
58.392235
 20
29.630873
 42
-0.040803
  0
VERTEX
  8
0
 10
53.000000
 20
30.890082
 42
-0.125280
  0
VERTEX
  8
0
 10
28.206342
 20
46.442514
 42
-0.100365
  0
VERTEX
  8
0
 10
11.377388
 20
73.211194
 42
-0.089774
  0
VERTEX
  8
0
 10
5.119914
 20
107.190615
 42
-0.077309
  0
VERTEX
  8
0
 10
10.598964
 20
143.135688
 42
-0.025460
  0
VERTEX
  8
0
 10
14.806673
 20
154.434784
 42
-0.028544
  0
VERTEX
  8
0
 10
20.005010
 20
164.810273
 42
-0.029291
  0
VERTEX
  8
0
 10
26.213935
 20
174.285001
 42
-0.029987
  0
VERTEX
  8
0
 10
33.442666
 20
182.891260
 42
-0.052622
  0
VERTEX
  8
0
 10
44.502157
 20
192.340991
 42
-0.072698
  0
VERTEX
  8
0
 10
56.202941
 20
198.091313
 42
-0.079564
  0
VERTEX
  8
0
 10
68.206692
 20
199.940507
 42
-0.079918
  0
SEQEND
  0
ENDSEC
  0
EOF
